<mxfile host="app.diagrams.net" modified="2024-05-30T18:15:14.206Z" agent="Mozilla/5.0 (Windows NT 10.0; Win64; x64) AppleWebKit/537.36 (KHTML, like Gecko) Chrome/125.0.0.0 Safari/537.36" version="24.4.10" etag="89vLHu5xBMUYhduHx8EW" type="github">
  <diagram name="Page-1" id="4E8xtkN0gr5tiTVEeJDc">
    <mxGraphModel>
      <root>
        <mxCell id="0" />
        <mxCell id="1" parent="0" />
      </root>
    </mxGraphModel>
  </diagram>
</mxfile>
